<svg width="1022" height="892" viewBox="0 0 1022 892" fill="none" xmlns="http://www.w3.org/2000/svg">
<path d="M2.92801 259.642C2.92801 260.316 2.38313 260.861 1.714 260.861C1.04488 260.861 0.5 260.316 0.5 259.642C0.5 258.967 1.04488 258.423 1.714 258.423C2.38313 258.423 2.92801 258.967 2.92801 259.642Z" fill="#7ED161" stroke="#7ED161"/>
<path d="M14.9008 259.642C14.9008 260.316 14.3559 260.861 13.6868 260.861C13.0176 260.861 12.4727 260.316 12.4727 259.642C12.4727 258.967 13.0176 258.423 13.6868 258.423C14.3559 258.423 14.9008 258.967 14.9008 259.642Z" fill="#7ED161" stroke="#7ED161"/>
<path d="M26.8644 259.642C26.8644 260.316 26.3195 260.861 25.6504 260.861C24.9813 260.861 24.4364 260.316 24.4364 259.642C24.4364 258.967 24.9813 258.423 25.6504 258.423C26.3195 258.423 26.8644 258.967 26.8644 259.642Z" fill="#7ED161" stroke="#7ED161"/>
<path d="M38.8371 259.642C38.8371 260.316 38.2922 260.861 37.6231 260.861C36.954 260.861 36.4091 260.316 36.4091 259.642C36.4091 258.967 36.954 258.423 37.6231 258.423C38.2922 258.423 38.8371 258.967 38.8371 259.642Z" fill="#7ED161" stroke="#7ED161"/>
<path d="M50.8006 259.642C50.8006 260.316 50.2557 260.861 49.5866 260.861C48.9175 260.861 48.3726 260.316 48.3726 259.642C48.3726 258.967 48.9175 258.423 49.5866 258.423C50.2557 258.423 50.8006 258.967 50.8006 259.642Z" fill="#7ED161" stroke="#7ED161"/>
<path d="M62.7732 259.642C62.7732 260.316 62.2283 260.861 61.5592 260.861C60.8901 260.861 60.3452 260.316 60.3452 259.642C60.3452 258.967 60.8901 258.423 61.5592 258.423C62.2283 258.423 62.7732 258.967 62.7732 259.642Z" fill="#7ED161" stroke="#7ED161"/>
<path d="M2.92801 271.64C2.92801 272.314 2.38316 272.858 1.714 272.858C1.04485 272.858 0.5 272.314 0.5 271.64C0.5 270.965 1.04485 270.421 1.714 270.421C2.38316 270.421 2.92801 270.965 2.92801 271.64Z" fill="#7ED161" stroke="#7ED161"/>
<path d="M14.9008 271.64C14.9008 272.314 14.3559 272.858 13.6868 272.858C13.0176 272.858 12.4728 272.314 12.4728 271.64C12.4728 270.965 13.0176 270.421 13.6868 270.421C14.3559 270.421 14.9008 270.965 14.9008 271.64Z" fill="#7ED161" stroke="#7ED161"/>
<path d="M26.8644 271.64C26.8644 272.314 26.3195 272.858 25.6504 272.858C24.9812 272.858 24.4364 272.314 24.4364 271.64C24.4364 270.965 24.9812 270.421 25.6504 270.421C26.3195 270.421 26.8644 270.965 26.8644 271.64Z" fill="#7ED161" stroke="#7ED161"/>
<path d="M38.8371 271.64C38.8371 272.314 38.2922 272.858 37.6231 272.858C36.9539 272.858 36.4091 272.314 36.4091 271.64C36.4091 270.965 36.9539 270.421 37.6231 270.421C38.2922 270.421 38.8371 270.965 38.8371 271.64Z" fill="#7ED161" stroke="#7ED161"/>
<path d="M50.8006 271.64C50.8006 272.314 50.2558 272.858 49.5866 272.858C48.9175 272.858 48.3726 272.314 48.3726 271.64C48.3726 270.965 48.9175 270.421 49.5866 270.421C50.2558 270.421 50.8006 270.965 50.8006 271.64Z" fill="#7ED161" stroke="#7ED161"/>
<path d="M62.7732 271.64C62.7732 272.314 62.2284 272.858 61.5592 272.858C60.8901 272.858 60.3452 272.314 60.3452 271.64C60.3452 270.965 60.8901 270.421 61.5592 270.421C62.2284 270.421 62.7732 270.965 62.7732 271.64Z" fill="#7ED161" stroke="#7ED161"/>
<path d="M2.92801 283.646C2.92801 284.321 2.38315 284.865 1.714 284.865C1.04486 284.865 0.5 284.321 0.5 283.646C0.5 282.972 1.04487 282.427 1.714 282.427C2.38314 282.427 2.92801 282.972 2.92801 283.646Z" fill="#7ED161" stroke="#7ED161"/>
<path d="M14.9008 283.646C14.9008 284.321 14.3559 284.865 13.6868 284.865C13.0176 284.865 12.4728 284.321 12.4728 283.646C12.4728 282.972 13.0176 282.427 13.6868 282.427C14.3559 282.427 14.9008 282.972 14.9008 283.646Z" fill="#7ED161" stroke="#7ED161"/>
<path d="M26.8644 283.646C26.8644 284.321 26.3195 284.865 25.6504 284.865C24.9813 284.865 24.4364 284.321 24.4364 283.646C24.4364 282.972 24.9813 282.427 25.6504 282.427C26.3195 282.427 26.8644 282.972 26.8644 283.646Z" fill="#7ED161" stroke="#7ED161"/>
<path d="M38.8371 283.646C38.8371 284.321 38.2922 284.865 37.6231 284.865C36.9539 284.865 36.4091 284.321 36.4091 283.646C36.4091 282.972 36.9539 282.427 37.6231 282.427C38.2922 282.427 38.8371 282.972 38.8371 283.646Z" fill="#7ED161" stroke="#7ED161"/>
<path d="M50.8006 283.646C50.8006 284.321 50.2557 284.865 49.5866 284.865C48.9175 284.865 48.3726 284.321 48.3726 283.646C48.3726 282.972 48.9175 282.427 49.5866 282.427C50.2557 282.427 50.8006 282.972 50.8006 283.646Z" fill="#7ED161" stroke="#7ED161"/>
<path d="M62.7732 283.646C62.7732 284.321 62.2284 284.865 61.5592 284.865C60.8901 284.865 60.3452 284.321 60.3452 283.646C60.3452 282.972 60.8901 282.427 61.5592 282.427C62.2284 282.427 62.7732 282.972 62.7732 283.646Z" fill="#7ED161" stroke="#7ED161"/>
<path d="M2.92801 295.644C2.92801 296.319 2.38313 296.863 1.714 296.863C1.04488 296.863 0.5 296.319 0.5 295.644C0.5 294.97 1.04488 294.425 1.714 294.425C2.38313 294.425 2.92801 294.97 2.92801 295.644Z" fill="#7ED161" stroke="#7ED161"/>
<path d="M14.9008 295.644C14.9008 296.319 14.3559 296.863 13.6868 296.863C13.0177 296.863 12.4728 296.319 12.4728 295.644C12.4728 294.97 13.0177 294.425 13.6868 294.425C14.3559 294.425 14.9008 294.97 14.9008 295.644Z" fill="#7ED161" stroke="#7ED161"/>
<path d="M26.8644 295.644C26.8644 296.319 26.3195 296.863 25.6504 296.863C24.9813 296.863 24.4364 296.319 24.4364 295.644C24.4364 294.97 24.9813 294.425 25.6504 294.425C26.3195 294.425 26.8644 294.97 26.8644 295.644Z" fill="#7ED161" stroke="#7ED161"/>
<path d="M38.8371 295.644C38.8371 296.319 38.2922 296.863 37.6231 296.863C36.9539 296.863 36.4091 296.319 36.4091 295.644C36.4091 294.97 36.9539 294.425 37.6231 294.425C38.2922 294.425 38.8371 294.97 38.8371 295.644Z" fill="#7ED161" stroke="#7ED161"/>
<path d="M50.8006 295.644C50.8006 296.319 50.2557 296.863 49.5866 296.863C48.9175 296.863 48.3726 296.319 48.3726 295.644C48.3726 294.97 48.9175 294.425 49.5866 294.425C50.2557 294.425 50.8006 294.97 50.8006 295.644Z" fill="#7ED161" stroke="#7ED161"/>
<path d="M62.7732 295.644C62.7732 296.319 62.2283 296.863 61.5592 296.863C60.8901 296.863 60.3452 296.319 60.3452 295.644C60.3452 294.97 60.8901 294.425 61.5592 294.425C62.2283 294.425 62.7732 294.97 62.7732 295.644Z" fill="#7ED161" stroke="#7ED161"/>
<path d="M485.928 877.556C485.928 878.231 485.383 878.775 484.714 878.775C484.045 878.775 483.5 878.231 483.5 877.556C483.5 876.882 484.045 876.337 484.714 876.337C485.383 876.337 485.928 876.882 485.928 877.556Z" fill="#7ED161" stroke="#7ED161"/>
<path d="M497.901 877.556C497.901 878.231 497.356 878.775 496.687 878.775C496.018 878.775 495.473 878.231 495.473 877.556C495.473 876.882 496.018 876.337 496.687 876.337C497.356 876.337 497.901 876.882 497.901 877.556Z" fill="#7ED161" stroke="#7ED161"/>
<path d="M509.864 877.556C509.864 878.231 509.319 878.775 508.65 878.775C507.981 878.775 507.436 878.231 507.436 877.556C507.436 876.882 507.981 876.337 508.65 876.337C509.319 876.337 509.864 876.882 509.864 877.556Z" fill="#7ED161" stroke="#7ED161"/>
<path d="M521.837 877.556C521.837 878.231 521.292 878.775 520.623 878.775C519.954 878.775 519.409 878.231 519.409 877.556C519.409 876.882 519.954 876.337 520.623 876.337C521.292 876.337 521.837 876.882 521.837 877.556Z" fill="#7ED161" stroke="#7ED161"/>
<path d="M533.801 877.556C533.801 878.231 533.256 878.775 532.587 878.775C531.917 878.775 531.373 878.231 531.373 877.556C531.373 876.882 531.917 876.337 532.587 876.337C533.256 876.337 533.801 876.882 533.801 877.556Z" fill="#7ED161" stroke="#7ED161"/>
<path d="M485.928 889.563C485.928 890.237 485.383 890.782 484.714 890.782C484.045 890.782 483.5 890.237 483.5 889.563C483.5 888.888 484.045 888.344 484.714 888.344C485.383 888.344 485.928 888.888 485.928 889.563Z" fill="#7ED161" stroke="#7ED161"/>
<path d="M497.901 889.563C497.901 890.237 497.356 890.782 496.687 890.782C496.018 890.782 495.473 890.237 495.473 889.563C495.473 888.888 496.018 888.344 496.687 888.344C497.356 888.344 497.901 888.888 497.901 889.563Z" fill="#7ED161" stroke="#7ED161"/>
<path d="M509.864 889.563C509.864 890.237 509.319 890.782 508.65 890.782C507.981 890.782 507.436 890.237 507.436 889.563C507.436 888.888 507.981 888.344 508.65 888.344C509.319 888.344 509.864 888.888 509.864 889.563Z" fill="#7ED161" stroke="#7ED161"/>
<path d="M521.837 889.563C521.837 890.237 521.292 890.782 520.623 890.782C519.954 890.782 519.409 890.237 519.409 889.563C519.409 888.888 519.954 888.344 520.623 888.344C521.292 888.344 521.837 888.888 521.837 889.563Z" fill="#7ED161" stroke="#7ED161"/>
<path d="M533.801 889.563C533.801 890.237 533.256 890.782 532.587 890.782C531.917 890.782 531.373 890.237 531.373 889.563C531.373 888.888 531.917 888.344 532.587 888.344C533.256 888.344 533.801 888.888 533.801 889.563Z" fill="#7ED161" stroke="#7ED161"/>
<path d="M612.928 2.26111C612.928 2.93563 612.383 3.47998 611.714 3.47998C611.045 3.47998 610.5 2.93561 610.5 2.26111C610.5 1.58661 611.045 1.04224 611.714 1.04224C612.383 1.04224 612.928 1.58659 612.928 2.26111Z" fill="#7ED161" stroke="#7ED161"/>
<path d="M624.892 2.26111C624.892 2.93561 624.347 3.47998 623.678 3.47998C623.009 3.47998 622.464 2.93561 622.464 2.26111C622.464 1.58661 623.009 1.04224 623.678 1.04224C624.347 1.04224 624.892 1.58661 624.892 2.26111Z" fill="#7ED161" stroke="#7ED161"/>
<path d="M636.865 2.26111C636.865 2.93564 636.32 3.47998 635.651 3.47998C634.981 3.47998 634.437 2.93562 634.437 2.26111C634.437 1.5866 634.981 1.04224 635.651 1.04224C636.32 1.04224 636.865 1.58658 636.865 2.26111Z" fill="#7ED161" stroke="#7ED161"/>
<path d="M612.928 14.2679C612.928 14.9425 612.383 15.4868 611.714 15.4868C611.045 15.4868 610.5 14.9424 610.5 14.2679C610.5 13.5934 611.045 13.0491 611.714 13.0491C612.383 13.0491 612.928 13.5934 612.928 14.2679Z" fill="#7ED161" stroke="#7ED161"/>
<path d="M624.892 14.2679C624.892 14.9424 624.347 15.4868 623.678 15.4868C623.009 15.4868 622.464 14.9424 622.464 14.2679C622.464 13.5934 623.009 13.0491 623.678 13.0491C624.347 13.0491 624.892 13.5934 624.892 14.2679Z" fill="#7ED161" stroke="#7ED161"/>
<path d="M636.864 14.2679C636.864 14.9425 636.32 15.4868 635.651 15.4868C634.981 15.4868 634.437 14.9424 634.437 14.2679C634.437 13.5934 634.981 13.0491 635.651 13.0491C636.32 13.0491 636.864 13.5934 636.864 14.2679Z" fill="#7ED161" stroke="#7ED161"/>
<path d="M120.928 622.178C120.928 622.853 120.383 623.397 119.714 623.397C119.045 623.397 118.5 622.853 118.5 622.178C118.5 621.504 119.045 620.959 119.714 620.959C120.383 620.959 120.928 621.504 120.928 622.178Z" fill="#7ED161" stroke="#7ED161"/>
<path d="M132.892 622.178C132.892 622.853 132.347 623.397 131.678 623.397C131.009 623.397 130.464 622.853 130.464 622.178C130.464 621.504 131.009 620.959 131.678 620.959C132.347 620.959 132.892 621.504 132.892 622.178Z" fill="#7ED161" stroke="#7ED161"/>
<path d="M144.864 622.178C144.864 622.853 144.319 623.397 143.65 623.397C142.981 623.397 142.436 622.853 142.436 622.178C142.436 621.504 142.981 620.959 143.65 620.959C144.319 620.959 144.864 621.504 144.864 622.178Z" fill="#7ED161" stroke="#7ED161"/>
<path d="M120.928 634.185C120.928 634.86 120.383 635.404 119.714 635.404C119.045 635.404 118.5 634.86 118.5 634.185C118.5 633.51 119.045 632.966 119.714 632.966C120.383 632.966 120.928 633.51 120.928 634.185Z" fill="#7ED161" stroke="#7ED161"/>
<path d="M132.892 634.185C132.892 634.859 132.347 635.404 131.678 635.404C131.009 635.404 130.464 634.859 130.464 634.185C130.464 633.511 131.009 632.966 131.678 632.966C132.347 632.966 132.892 633.511 132.892 634.185Z" fill="#7ED161" stroke="#7ED161"/>
<path d="M144.864 634.185C144.864 634.859 144.32 635.404 143.65 635.404C142.981 635.404 142.436 634.859 142.436 634.185C142.436 633.511 142.981 632.966 143.65 632.966C144.32 632.966 144.864 633.511 144.864 634.185Z" fill="#7ED161" stroke="#7ED161"/>
<path d="M1020.84 453.929C1020.84 454.604 1020.29 455.148 1019.62 455.148C1018.95 455.148 1018.41 454.604 1018.41 453.929C1018.41 453.255 1018.95 452.71 1019.62 452.71C1020.29 452.71 1020.84 453.255 1020.84 453.929Z" fill="#7ED161" stroke="#7ED161"/>
<path d="M1020.84 465.936C1020.84 466.611 1020.29 467.155 1019.62 467.155C1018.95 467.155 1018.41 466.611 1018.41 465.936C1018.41 465.262 1018.95 464.717 1019.62 464.717C1020.29 464.717 1020.84 465.262 1020.84 465.936Z" fill="#7ED161" stroke="#7ED161"/>
<path d="M1020.84 477.934C1020.84 478.608 1020.29 479.153 1019.62 479.153C1018.95 479.153 1018.41 478.608 1018.41 477.934C1018.41 477.259 1018.95 476.715 1019.62 476.715C1020.29 476.715 1020.84 477.259 1020.84 477.934Z" fill="#7ED161" stroke="#7ED161"/>
<path d="M1020.84 489.941C1020.84 490.615 1020.29 491.16 1019.62 491.16C1018.95 491.16 1018.41 490.615 1018.41 489.941C1018.41 489.266 1018.95 488.722 1019.62 488.722C1020.29 488.722 1020.84 489.266 1020.84 489.941Z" fill="#7ED161" stroke="#7ED161"/>
<path d="M1020.84 501.938C1020.84 502.613 1020.29 503.157 1019.62 503.157C1018.95 503.157 1018.41 502.613 1018.41 501.938C1018.41 501.264 1018.95 500.719 1019.62 500.719C1020.29 500.719 1020.84 501.264 1020.84 501.938Z" fill="#7ED161" stroke="#7ED161"/>
<path d="M1020.84 513.945C1020.84 514.62 1020.29 515.164 1019.62 515.164C1018.95 515.164 1018.41 514.62 1018.41 513.945C1018.41 513.271 1018.95 512.726 1019.62 512.726C1020.29 512.726 1020.84 513.271 1020.84 513.945Z" fill="#7ED161" stroke="#7ED161"/>
<path d="M1020.84 525.943C1020.84 526.617 1020.29 527.162 1019.62 527.162C1018.95 527.162 1018.41 526.617 1018.41 525.943C1018.41 525.268 1018.95 524.724 1019.62 524.724C1020.29 524.724 1020.84 525.268 1020.84 525.943Z" fill="#7ED161" stroke="#7ED161"/>
<path d="M1008.86 453.929C1008.86 454.604 1008.32 455.148 1007.65 455.148C1006.98 455.148 1006.44 454.604 1006.44 453.929C1006.44 453.255 1006.98 452.71 1007.65 452.71C1008.32 452.71 1008.86 453.255 1008.86 453.929Z" fill="#7ED161" stroke="#7ED161"/>
<path d="M1008.86 465.936C1008.86 466.611 1008.32 467.155 1007.65 467.155C1006.98 467.155 1006.44 466.611 1006.44 465.936C1006.44 465.262 1006.98 464.717 1007.65 464.717C1008.32 464.717 1008.86 465.262 1008.86 465.936Z" fill="#7ED161" stroke="#7ED161"/>
<path d="M1008.86 477.934C1008.86 478.608 1008.32 479.153 1007.65 479.153C1006.98 479.153 1006.44 478.608 1006.44 477.934C1006.44 477.259 1006.98 476.715 1007.65 476.715C1008.32 476.715 1008.86 477.259 1008.86 477.934Z" fill="#7ED161" stroke="#7ED161"/>
<path d="M1008.86 489.941C1008.86 490.615 1008.32 491.16 1007.65 491.16C1006.98 491.16 1006.44 490.615 1006.44 489.941C1006.44 489.266 1006.98 488.722 1007.65 488.722C1008.32 488.722 1008.86 489.266 1008.86 489.941Z" fill="#7ED161" stroke="#7ED161"/>
<path d="M1008.86 501.938C1008.86 502.613 1008.32 503.157 1007.65 503.157C1006.98 503.157 1006.44 502.613 1006.44 501.938C1006.44 501.264 1006.98 500.719 1007.65 500.719C1008.32 500.719 1008.86 501.264 1008.86 501.938Z" fill="#7ED161" stroke="#7ED161"/>
<path d="M1008.86 513.945C1008.86 514.62 1008.32 515.164 1007.65 515.164C1006.98 515.164 1006.44 514.62 1006.44 513.945C1006.44 513.271 1006.98 512.726 1007.65 512.726C1008.32 512.726 1008.86 513.271 1008.86 513.945Z" fill="#7ED161" stroke="#7ED161"/>
<path d="M1008.86 525.943C1008.86 526.617 1008.32 527.162 1007.65 527.162C1006.98 527.162 1006.44 526.617 1006.44 525.943C1006.44 525.268 1006.98 524.724 1007.65 524.724C1008.32 524.724 1008.86 525.268 1008.86 525.943Z" fill="#7ED161" stroke="#7ED161"/>
<path d="M996.901 453.929C996.901 454.604 996.356 455.148 995.687 455.148C995.018 455.148 994.473 454.604 994.473 453.929C994.473 453.255 995.018 452.71 995.687 452.71C996.356 452.71 996.901 453.255 996.901 453.929Z" fill="#7ED161" stroke="#7ED161"/>
<path d="M996.901 465.936C996.901 466.611 996.356 467.155 995.687 467.155C995.018 467.155 994.473 466.611 994.473 465.936C994.473 465.262 995.018 464.717 995.687 464.717C996.356 464.717 996.901 465.262 996.901 465.936Z" fill="#7ED161" stroke="#7ED161"/>
<path d="M996.901 477.934C996.901 478.608 996.356 479.153 995.687 479.153C995.018 479.153 994.473 478.608 994.473 477.934C994.473 477.259 995.018 476.715 995.687 476.715C996.356 476.715 996.901 477.259 996.901 477.934Z" fill="#7ED161" stroke="#7ED161"/>
<path d="M996.901 489.941C996.901 490.615 996.356 491.16 995.687 491.16C995.018 491.16 994.473 490.615 994.473 489.941C994.473 489.266 995.018 488.722 995.687 488.722C996.356 488.722 996.901 489.266 996.901 489.941Z" fill="#7ED161" stroke="#7ED161"/>
<path d="M996.901 501.938C996.901 502.613 996.356 503.157 995.687 503.157C995.018 503.157 994.473 502.613 994.473 501.938C994.473 501.264 995.018 500.719 995.687 500.719C996.356 500.719 996.901 501.264 996.901 501.938Z" fill="#7ED161" stroke="#7ED161"/>
<path d="M996.901 513.945C996.901 514.62 996.356 515.164 995.687 515.164C995.018 515.164 994.473 514.62 994.473 513.945C994.473 513.271 995.018 512.726 995.687 512.726C996.356 512.726 996.901 513.271 996.901 513.945Z" fill="#7ED161" stroke="#7ED161"/>
<path d="M996.901 525.943C996.901 526.617 996.356 527.162 995.687 527.162C995.018 527.162 994.473 526.617 994.473 525.943C994.473 525.268 995.018 524.724 995.687 524.724C996.356 524.724 996.901 525.268 996.901 525.943Z" fill="#7ED161" stroke="#7ED161"/>
<path d="M984.928 453.929C984.928 454.604 984.383 455.148 983.714 455.148C983.045 455.148 982.5 454.604 982.5 453.929C982.5 453.255 983.045 452.71 983.714 452.71C984.383 452.71 984.928 453.255 984.928 453.929Z" fill="#7ED161" stroke="#7ED161"/>
<path d="M984.928 465.936C984.928 466.611 984.383 467.155 983.714 467.155C983.045 467.155 982.5 466.611 982.5 465.936C982.5 465.262 983.045 464.717 983.714 464.717C984.383 464.717 984.928 465.262 984.928 465.936Z" fill="#7ED161" stroke="#7ED161"/>
<path d="M984.928 477.934C984.928 478.608 984.383 479.153 983.714 479.153C983.045 479.153 982.5 478.608 982.5 477.934C982.5 477.259 983.045 476.715 983.714 476.715C984.383 476.715 984.928 477.259 984.928 477.934Z" fill="#7ED161" stroke="#7ED161"/>
<path d="M984.928 489.941C984.928 490.615 984.383 491.16 983.714 491.16C983.045 491.16 982.5 490.615 982.5 489.941C982.5 489.266 983.045 488.722 983.714 488.722C984.383 488.722 984.928 489.266 984.928 489.941Z" fill="#7ED161" stroke="#7ED161"/>
<path d="M984.928 501.938C984.928 502.613 984.383 503.157 983.714 503.157C983.045 503.157 982.5 502.613 982.5 501.938C982.5 501.264 983.045 500.719 983.714 500.719C984.383 500.719 984.928 501.264 984.928 501.938Z" fill="#7ED161" stroke="#7ED161"/>
<path d="M984.928 513.945C984.928 514.62 984.383 515.164 983.714 515.164C983.045 515.164 982.5 514.62 982.5 513.945C982.5 513.271 983.045 512.726 983.714 512.726C984.383 512.726 984.928 513.271 984.928 513.945Z" fill="#7ED161" stroke="#7ED161"/>
<path d="M984.928 525.943C984.928 526.617 984.383 527.162 983.714 527.162C983.045 527.162 982.5 526.617 982.5 525.943C982.5 525.268 983.045 524.724 983.714 524.724C984.383 524.724 984.928 525.268 984.928 525.943Z" fill="#7ED161" stroke="#7ED161"/>
</svg>
