<svg width="50" height="50" viewBox="0 0 50 50" fill="none" xmlns="http://www.w3.org/2000/svg">
<g clip-path="url(#clip0)">
<path d="M24.6821 44.0049C24.5147 44.0073 24.3518 43.9513 24.2213 43.8465C23.6885 43.4001 11.0021 32.9025 11.0021 21.5553C10.9703 19.7561 11.3034 17.9691 11.9813 16.3022C12.6592 14.6353 13.6678 13.123 14.9463 11.8566C16.2247 10.5903 17.7466 9.59607 19.4199 8.93408C21.0932 8.27208 22.8833 7.95601 24.6821 8.00492C26.4809 7.95601 28.271 8.27208 29.9443 8.93408C31.6176 9.59607 33.1394 10.5903 34.4179 11.8566C35.6964 13.123 36.705 14.6353 37.3829 16.3022C38.0608 17.9691 38.3939 19.7561 38.3621 21.5553C38.3621 31.7793 25.7045 43.3281 25.1573 43.8177C25.0271 43.9361 24.858 44.0027 24.6821 44.0049V44.0049ZM24.6821 9.44492C23.0686 9.38108 21.4592 9.64965 19.9539 10.234C18.4486 10.8183 17.0795 11.7058 15.9317 12.8415C14.7838 13.9772 13.8817 15.3368 13.2814 16.8358C12.6811 18.3348 12.3954 19.9413 12.4421 21.5553C12.4421 31.0305 22.3493 40.2753 24.6533 42.3201C26.9429 40.1313 36.9221 30.0801 36.9221 21.5553C36.9687 19.9413 36.6831 18.3348 36.0828 16.8358C35.4824 15.3368 34.5804 13.9772 33.4325 12.8415C32.2846 11.7058 30.9155 10.8183 29.4102 10.234C27.9049 9.64965 26.2956 9.38108 24.6821 9.44492V9.44492ZM24.6821 28.1649C23.4005 28.1649 22.1476 27.7849 21.082 27.0728C20.0164 26.3608 19.1858 25.3488 18.6953 24.1647C18.2049 22.9806 18.0766 21.6777 18.3266 20.4207C18.5766 19.1637 19.1938 18.0091 20.1 17.1029C21.0063 16.1966 22.1609 15.5795 23.4179 15.3294C24.6749 15.0794 25.9778 15.2077 27.1619 15.6982C28.3459 16.1886 29.358 17.0192 30.07 18.0848C30.782 19.1505 31.1621 20.4033 31.1621 21.6849C31.1621 23.4035 30.4794 25.0517 29.2641 26.267C28.0489 27.4822 26.4007 28.1649 24.6821 28.1649V28.1649ZM24.6821 16.6449C23.6853 16.6449 22.7108 16.9405 21.882 17.4943C21.0532 18.0481 20.4072 18.8353 20.0257 19.7562C19.6443 20.6771 19.5445 21.6905 19.7389 22.6682C19.9334 23.6458 20.4134 24.5439 21.1183 25.2487C21.8231 25.9536 22.7212 26.4336 23.6988 26.6281C24.6765 26.8225 25.6899 26.7227 26.6108 26.3413C27.5317 25.9598 28.3189 25.3138 28.8727 24.485C29.4265 23.6562 29.7221 22.6817 29.7221 21.6849C29.7221 20.3482 29.1911 19.0663 28.2459 18.1211C27.3007 17.1759 26.0188 16.6449 24.6821 16.6449Z" fill="#7ED161"/>
</g>
<circle cx="25" cy="25" r="24.5" stroke="#7ED161"/>
<defs>
<clipPath id="clip0">
<rect width="36" height="36" fill="white" transform="translate(7 8)"/>
</clipPath>
</defs>
</svg>
