<svg width="27" height="26" viewBox="0 0 27 26" fill="none" xmlns="http://www.w3.org/2000/svg">
<path fill-rule="evenodd" clip-rule="evenodd" d="M7.9541 5.41667C7.9541 2.42513 10.4725 0 13.5791 0C16.6857 0 19.2041 2.42513 19.2041 5.41667V10.5676C21.2598 12.1545 22.5791 14.5954 22.5791 17.3333C22.5791 22.1198 18.5497 26 13.5791 26C8.60854 26 4.5791 22.1198 4.5791 17.3333C4.5791 14.5954 5.89839 12.1545 7.9541 10.5676V5.41667ZM10.2041 9.29696C11.2469 8.89052 12.3865 8.66667 13.5791 8.66667C14.7717 8.66667 15.9113 8.89052 16.9541 9.29696V5.41667C16.9541 3.62175 15.4431 2.16667 13.5791 2.16667C11.7151 2.16667 10.2041 3.62175 10.2041 5.41667V9.29696ZM13.5791 10.8333C12.1435 10.8333 10.8156 11.2637 9.72271 11.9978C7.97125 13.1742 6.8291 15.1254 6.8291 17.3333C6.8291 20.9232 9.85118 23.8333 13.5791 23.8333C17.307 23.8333 20.3291 20.9232 20.3291 17.3333C20.3291 15.1254 19.187 13.1742 17.4355 11.9978C16.3426 11.2637 15.0147 10.8333 13.5791 10.8333ZM13.5791 15.1667C14.2004 15.1667 14.7041 15.6517 14.7041 16.25V18.4167C14.7041 19.015 14.2004 19.5 13.5791 19.5C12.9578 19.5 12.4541 19.015 12.4541 18.4167V16.25C12.4541 15.6517 12.9578 15.1667 13.5791 15.1667Z" fill="#FDFDFD"/>
</svg>
