<svg width="126" height="126" viewBox="0 0 126 126" fill="none" xmlns="http://www.w3.org/2000/svg">
<path d="M48.7849 96.2847C47.5769 92.6741 44.3494 91.1852 41.0583 89.9081C38.5203 88.9232 35.982 87.9392 33.4434 86.9561L26.2318 94.1662L19.0203 86.9561C16.482 87.9401 13.9436 88.9241 11.4053 89.9081C8.11421 91.1852 4.88673 92.674 3.67875 96.2847C3.4628 96.9326 2.52817 102.036 2.09907 104.41C2.07238 104.557 2.07839 104.709 2.11668 104.853C2.15496 104.998 2.22459 105.133 2.32064 105.248C2.4167 105.363 2.53682 105.455 2.67254 105.519C2.80826 105.582 2.95626 105.615 3.10608 105.615H49.3576C49.5074 105.615 49.6554 105.582 49.7911 105.519C49.9268 105.455 50.0469 105.363 50.143 105.248C50.239 105.133 50.3087 104.998 50.347 104.853C50.3852 104.709 50.3913 104.557 50.3646 104.41C49.9355 102.036 49.0008 96.9326 48.7849 96.2847Z" fill="#2D3E50"/>
<path d="M123.901 104.41C123.472 102.036 122.537 96.9326 122.321 96.2847C121.113 92.6741 117.886 91.1852 114.595 89.9081C112.057 88.9232 109.518 87.9392 106.98 86.9561L99.7682 94.1662L92.5566 86.9561C90.0183 87.9401 87.48 88.9241 84.9417 89.9081C81.6506 91.1852 78.4231 92.674 77.2151 96.2847C76.9992 96.9326 76.0646 102.036 75.6354 104.41C75.6088 104.557 75.6148 104.709 75.6531 104.853C75.6913 104.998 75.761 105.133 75.857 105.248C75.9531 105.363 76.0732 105.455 76.2089 105.519C76.3446 105.582 76.4926 105.615 76.6425 105.615H122.894C123.044 105.615 123.192 105.582 123.327 105.519C123.463 105.455 123.583 105.363 123.679 105.248C123.775 105.133 123.845 104.998 123.883 104.853C123.922 104.709 123.928 104.557 123.901 104.41Z" fill="#2D3E50"/>
<path d="M88.6074 67.4737L90.1096 75.2166C90.5456 77.4584 91.7478 79.4786 93.5101 80.9312C95.2724 82.3837 97.4851 83.178 99.7688 83.178C102.053 83.178 104.265 82.3837 106.028 80.9312C107.79 79.4786 108.992 77.4584 109.428 75.2166L110.93 67.4737C111.13 66.0082 111.013 64.5169 110.588 63.1001C110.163 61.6834 109.44 60.3739 108.468 59.2597C107.495 58.1456 106.295 57.2525 104.948 56.6404C103.602 56.0284 102.14 55.7117 100.661 55.7114H98.8767C97.3976 55.7117 95.9357 56.0284 94.5892 56.6405C93.2427 57.2525 92.0428 58.1456 91.07 59.2597C90.0973 60.3739 89.3742 61.6834 88.9495 63.1001C88.5247 64.5169 88.4081 66.0082 88.6074 67.4737Z" fill="#2D3E50"/>
<path d="M73.566 95.0666C74.2109 93.1163 75.3622 91.3722 76.9022 90.0128L76.7812 85.3108L76.6658 80.8588C76.5998 78.3828 75.0691 62.6058 77.4463 60.1902C78.4934 59.157 79.5971 58.1826 80.7523 57.2717C83.8961 54.5236 87.0482 51.77 89.9777 48.791C91.2792 47.5854 92.4249 46.2219 93.3881 44.732C94.1246 43.4651 94.7539 42.2945 95.2404 41.3051C95.5847 40.6033 95.6614 39.8001 95.456 39.0458C95.2506 38.2915 94.7773 37.638 94.1246 37.2077L93.9432 37.0868C93.2545 36.6333 92.4181 36.4612 91.6062 36.6059C90.7944 36.7506 90.069 37.201 89.5792 37.8645C89.5705 37.8755 89.5632 37.8875 89.5572 37.9002C87.683 40.4312 84.1352 44.6936 79.4689 47.1861C77.8814 48.0535 76.1634 48.6568 74.3821 48.9724C73.1095 48.9757 71.8694 49.3752 70.8343 50.1156C68.5222 51.7602 65.7544 52.6422 62.917 52.6384H62.8071C59.9697 52.6422 57.2019 51.7602 54.8897 50.1156C53.8546 49.3752 52.6146 48.9757 51.3419 48.9724C49.5607 48.6568 47.8426 48.0535 46.2551 47.1861C41.5889 44.6935 38.041 40.4312 36.1668 37.9002C36.1609 37.8875 36.1535 37.8755 36.1448 37.8645C35.6551 37.201 34.9297 36.7506 34.1178 36.6059C33.306 36.4612 32.4696 36.6333 31.7808 37.0867L31.5994 37.2077C30.9468 37.638 30.4734 38.2915 30.268 39.0458C30.0626 39.8 30.1393 40.6033 30.4837 41.3051C30.9701 42.2944 31.5994 43.4651 32.3359 44.732C33.2991 46.2219 34.4448 47.5854 35.7464 48.791C38.6759 51.77 41.8279 54.5236 44.9718 57.2717C46.1269 58.1826 47.2306 59.157 48.2778 60.1902C50.6549 62.6059 49.1242 78.3828 49.0583 80.8588L48.9428 85.3108L48.8329 89.5511C50.6353 90.9706 51.9824 92.8872 52.7077 95.0638C52.8258 95.4128 53.0375 96.0559 54.4253 103.726C54.5391 104.351 54.5289 104.993 54.3951 105.614H60.0232C60.0919 105.158 60.1607 104.701 60.2294 104.248L60.2349 104.221C60.4245 102.978 60.6113 101.758 60.7955 100.59C60.8999 99.917 61.0043 99.263 61.1033 98.6281C61.0978 98.5787 61.0923 98.5347 61.084 98.488L61.7738 93.8409C61.8122 93.5797 61.9433 93.3411 62.1431 93.1686C62.3429 92.996 62.5981 92.9011 62.862 92.9011C63.126 92.9011 63.3812 92.996 63.581 93.1686C63.7808 93.3411 63.9119 93.5797 63.9503 93.8409L64.6401 98.488C64.6318 98.5347 64.6263 98.5787 64.6209 98.6281C64.7198 99.263 64.8242 99.917 64.9286 100.59C65.1127 101.758 65.2996 102.978 65.4893 104.221L65.4948 104.248C65.5635 104.701 65.6322 105.158 65.7009 105.614H71.8786C71.7458 104.991 71.7364 104.347 71.8512 103.72C73.2362 96.0532 73.4506 95.4128 73.566 95.0666Z" fill="#7ED161"/>
<path d="M62.8137 44.7318H62.9131C66.1391 44.7277 69.2315 43.4433 71.5111 41.1608C73.7907 38.8782 75.0712 35.7842 75.0712 32.5583C75.0712 29.3323 73.7907 26.2383 71.5111 23.9558C69.2315 21.6732 66.1391 20.3889 62.9131 20.3848H62.8137C59.5878 20.3889 56.4954 21.6732 54.2157 23.9558C51.9361 26.2383 50.6557 29.3323 50.6557 32.5583C50.6557 35.7842 51.9361 38.8782 54.2157 41.1608C56.4954 43.4433 59.5878 44.7277 62.8137 44.7318Z" fill="#7ED161"/>
<path d="M11.0717 79.8063C13.312 80.4718 15.5921 80.9945 17.8986 81.3712L17.9031 81.3736L17.9536 81.3805C18.8348 81.5231 19.716 81.6436 20.5972 81.7423C20.6749 81.7508 29.3759 82.3106 33.161 81.5832L33.1617 81.5824C35.9469 81.2026 38.6987 80.6088 41.3927 79.8063C41.6883 79.7198 41.9635 79.5745 42.2018 79.3792C42.44 79.1838 42.6364 78.9425 42.7792 78.6695C42.9221 78.3965 43.0083 78.0975 43.033 77.7904C43.0576 77.4833 43.02 77.1744 42.9225 76.8822L38.0416 62.3329C37.1812 59.5901 35.345 57.258 32.8806 55.7782C32.2213 55.4908 31.4882 55.4184 30.7854 55.5715C30.1649 55.0293 29.4673 54.5823 28.7154 54.2453C27.9196 53.9594 27.0783 53.8217 26.2329 53.8388C23.6226 53.8386 21.0782 54.6585 18.959 56.1826C16.8399 57.7068 15.2531 59.8582 14.4228 62.3329L9.54193 76.8822C9.44457 77.1744 9.40712 77.4833 9.43181 77.7903C9.4565 78.0974 9.54282 78.3963 9.68561 78.6692C9.82841 78.9422 10.0247 79.1835 10.2629 79.3789C10.5011 79.5743 10.7762 79.7196 11.0717 79.8063Z" fill="#2D3E50"/>
</svg>
