<svg width="126" height="126" viewBox="0 0 126 126" fill="none" xmlns="http://www.w3.org/2000/svg">
<path d="M23.733 86.1968H15.2269V98.8199H23.733V86.1968Z" fill="#7ED161"/>
<path d="M23.733 63.427H15.2269V76.0501H23.733V63.427Z" fill="#7ED161"/>
<path d="M57.6493 54.9539H46.0146V67.5769H57.6493V54.9539Z" fill="#7ED161"/>
<path d="M57.6493 32.1841H46.0146V44.8072H57.6493V32.1841Z" fill="#7ED161"/>
<path d="M60.7454 77.9685H46.0146V104.278H60.7454V77.9685Z" fill="#7ED161"/>
<path d="M110.773 86.1968H102.267V98.8199H110.773V86.1968Z" fill="#7ED161"/>
<path d="M110.773 63.427H102.267V76.0501H110.773V63.427Z" fill="#7ED161"/>
<path d="M79.9854 54.9539H68.3508V67.5769H79.9854V54.9539Z" fill="#7ED161"/>
<path d="M79.9854 32.1841H68.3508V44.8072H79.9854V32.1841Z" fill="#7ED161"/>
<path d="M79.9855 77.9685H65.2546V104.278H79.9855V77.9685Z" fill="#7ED161"/>
<path d="M94.7416 43.0644V19.4128L63 4.83569L31.2584 19.4128V43.0644H1.75613V121.164H124.244V43.0644H94.7416ZM31.2584 113.237H7.70154V49.0097H31.2584V113.237ZM88.7963 113.237H37.2038V23.2245L63 11.3778L88.7963 23.2245V113.237ZM118.298 113.237H94.7416V49.0097H118.298V113.237Z" fill="#2D3E50"/>
</svg>
