<svg width="289" height="289" viewBox="0 0 289 289" fill="none" xmlns="http://www.w3.org/2000/svg">
<g clip-path="url(#clip0)">
<path d="M86.404 128.794C76.2219 128.794 66.0398 124.005 55.9283 114.427C38.397 97.8176 21.3476 97.8144 3.81635 114.427C2.53153 115.648 0.49832 115.596 -0.725463 114.305C-1.94603 113.017 -1.89143 110.984 -0.603406 109.763C19.6163 90.6098 40.1251 90.6066 60.348 109.763C77.8793 126.373 94.9287 126.376 112.46 109.763C132.686 90.6034 153.192 90.6066 173.408 109.763C190.949 126.379 207.992 126.369 225.527 109.763C245.746 90.6066 266.255 90.6034 286.475 109.763C287.763 110.984 287.817 113.017 286.597 114.305C285.376 115.593 283.343 115.644 282.058 114.427C264.524 97.8144 247.478 97.8144 229.943 114.427C209.727 133.58 189.215 133.587 168.992 114.427C151.457 97.8144 134.411 97.8144 116.88 114.427C106.768 124.005 96.5862 128.794 86.404 128.794Z" fill="#7ED161"/>
<path d="M86.4032 95.3945C76.2211 95.3945 66.039 90.6054 55.9275 81.0271C38.3963 64.4177 21.3468 64.4145 3.81555 81.0271C2.53074 82.2477 0.497527 82.1963 -0.726256 80.905C-1.94683 79.617 -1.89222 77.5838 -0.604199 76.3632C19.6155 57.2099 40.1243 57.2067 60.3473 76.3632C77.8785 92.9726 94.9279 92.9758 112.459 76.3632C132.685 57.2035 153.191 57.2099 173.407 76.3632C190.948 92.9791 207.991 92.9694 225.526 76.3632C245.746 57.2067 266.254 57.2035 286.474 76.3632C287.762 77.5838 287.817 79.617 286.596 80.905C285.376 82.1931 283.342 82.2445 282.058 81.0271C264.523 64.4145 247.477 64.4145 229.942 81.0271C209.726 100.18 189.214 100.184 168.991 81.0271C151.456 64.4145 134.41 64.4145 116.879 81.0271C106.767 90.6054 96.5854 95.3945 86.4032 95.3945Z" fill="#7ED161"/>
<path d="M86.404 162.194C76.2219 162.194 66.0398 157.405 55.9315 147.827C38.4003 131.218 21.3508 131.214 3.81635 147.827C2.53153 149.044 0.49832 148.996 -0.725463 147.705C-1.94603 146.417 -1.89143 144.384 -0.603406 143.163C19.6163 124.01 40.1251 124.007 60.348 143.163C77.8825 159.776 94.9287 159.772 112.463 143.163C132.686 124.003 153.195 124.01 173.411 143.163C190.952 159.776 207.995 159.766 225.53 143.163C245.75 124.007 266.258 124.003 286.478 143.163C287.766 144.384 287.821 146.417 286.6 147.705C285.38 148.993 283.346 149.044 282.062 147.827C264.527 131.214 247.481 131.214 229.946 147.827C209.73 166.977 189.218 166.987 168.995 147.827C151.46 131.214 134.414 131.214 116.883 147.827C106.768 157.405 96.5861 162.194 86.404 162.194Z" fill="#7ED161"/>
<path d="M86.404 195.595C76.2219 195.595 66.0397 190.806 55.9283 181.225C38.397 164.622 21.3476 164.615 3.81312 181.225C2.52831 182.449 0.498303 182.397 -0.728692 181.103C-1.94926 179.818 -1.89466 177.785 -0.603423 176.564C19.6131 157.408 40.1251 157.401 60.3448 176.564C77.8761 193.17 94.9255 193.17 112.46 176.564C132.683 157.401 153.192 157.408 173.408 176.564C190.949 193.177 207.992 193.164 225.527 176.564C245.746 157.404 266.255 157.404 286.475 176.564C287.763 177.785 287.817 179.818 286.597 181.103C285.376 182.394 283.343 182.445 282.058 181.225C264.524 164.619 247.478 164.619 229.943 181.225C209.727 200.385 189.215 200.385 168.992 181.225C151.457 164.619 134.411 164.619 116.877 181.225C106.768 190.806 96.5861 195.595 86.404 195.595Z" fill="#7ED161"/>
<path d="M86.404 228.997C76.2219 228.997 66.0397 224.207 55.9283 214.626C38.397 198.023 21.3476 198.017 3.81312 214.626C2.52831 215.85 0.498303 215.795 -0.728692 214.504C-1.94926 213.219 -1.89466 211.186 -0.603423 209.965C19.6131 190.806 40.1251 190.806 60.3448 209.965C77.8761 226.571 94.9255 226.571 112.46 209.965C132.683 190.802 153.192 190.809 173.408 209.965C190.949 226.578 207.992 226.565 225.527 209.965C245.746 190.806 266.255 190.806 286.475 209.965C287.763 211.186 287.817 213.219 286.597 214.504C285.376 215.792 283.343 215.846 282.058 214.626C264.524 198.02 247.478 198.02 229.943 214.626C209.727 233.782 189.215 233.789 168.992 214.626C151.457 198.02 134.411 198.02 116.877 214.626C106.768 224.207 96.5861 228.997 86.404 228.997Z" fill="#7ED161"/>
</g>
<defs>
<clipPath id="clip0">
<rect width="289" height="289" fill="white"/>
</clipPath>
</defs>
</svg>
