<svg width="126" height="109" viewBox="0 0 126 109" fill="none" xmlns="http://www.w3.org/2000/svg">
<g clip-path="url(#clip0)">
<path fill-rule="evenodd" clip-rule="evenodd" d="M18 61.1702V78.0551C18 82.4416 20.4 86.5276 24.24 88.6307L54.24 105.035C57.84 107.018 62.16 107.018 65.76 105.035L95.76 88.6307C99.6 86.5276 102 82.4416 102 78.0551V61.1702L65.76 80.9994C62.16 82.9824 57.84 82.9824 54.24 80.9994L18 61.1702ZM54.24 3.12474L3.65999 30.7654C-0.480007 33.0488 -0.480007 39.0577 3.65999 41.341L54.24 68.9817C57.84 70.9647 62.16 70.9647 65.76 68.9817L114 42.6029V78.1152C114 81.4201 116.7 84.124 120 84.124C123.3 84.124 126 81.4201 126 78.1152V39.5985C126 37.3752 124.8 35.3923 122.88 34.3107L65.76 3.12474C62.16 1.20191 57.84 1.20191 54.24 3.12474Z" fill="#2D3E50"/>
</g>
<defs>
<clipPath id="clip0">
<rect width="126" height="108.159" fill="white"/>
</clipPath>
</defs>
</svg>
