<?xml version="1.0" encoding="UTF-8" standalone="no"?> <svg width="24" height="24" viewBox="0 0 24 24" fill="none" xmlns="http://www.w3.org/2000/svg">
<path fill-rule="evenodd" clip-rule="evenodd" d="M7 5C7 2.23858 9.23858 0 12 0C14.7614 0 17 2.23858 17 5V9.7547C18.8273 11.2195 20 13.4727 20 16C20 20.4183 16.4183 24 12 24C7.58172 24 4 20.4183 4 16C4 11.5817 7.58172 8 12 8C13.0601 8 14.0731 8.20663 15 8.58181V5C15 3.34315 13.6569 2 12 2C10.3431 2 9 3.34315 9 5V6C9 6.55228 8.55228 7 8 7C7.44772 7 7 6.55228 7 6V5ZM12 10C8.68629 10 6 12.6863 6 16C6 19.3137 8.68629 22 12 22C15.3137 22 18 19.3137 18 16C18 13.9619 16.9848 12.1608 15.4279 11.0749C14.4564 10.3973 13.2761 10 12 10ZM12 14C12.5523 14 13 14.4477 13 15V17C13 17.5523 12.5523 18 12 18C11.4477 18 11 17.5523 11 17V15C11 14.4477 11.4477 14 12 14Z" fill="#FDFDFD"/>
</svg>
